%TF.GenerationSoftware,KiCad,Pcbnew,7.0.5-7.0.5~ubuntu22.04.1*%
%TF.CreationDate,2023-06-26T19:31:58-06:00*%
%TF.ProjectId,GaragePi_PCB,47617261-6765-4506-995f-5043422e6b69,rev?*%
%TF.SameCoordinates,Original*%
%TF.FileFunction,Copper,L1,Top*%
%TF.FilePolarity,Positive*%
%FSLAX46Y46*%
G04 Gerber Fmt 4.6, Leading zero omitted, Abs format (unit mm)*
G04 Created by KiCad (PCBNEW 7.0.5-7.0.5~ubuntu22.04.1) date 2023-06-26 19:31:58*
%MOMM*%
%LPD*%
G01*
G04 APERTURE LIST*
%TA.AperFunction,ComponentPad*%
%ADD10R,2.500000X2.500000*%
%TD*%
%TA.AperFunction,ComponentPad*%
%ADD11C,2.500000*%
%TD*%
%TA.AperFunction,ComponentPad*%
%ADD12R,1.600000X1.600000*%
%TD*%
%TA.AperFunction,ComponentPad*%
%ADD13O,1.600000X1.600000*%
%TD*%
%TA.AperFunction,ComponentPad*%
%ADD14C,3.000000*%
%TD*%
%TA.AperFunction,ComponentPad*%
%ADD15R,1.050000X1.500000*%
%TD*%
%TA.AperFunction,ComponentPad*%
%ADD16O,1.050000X1.500000*%
%TD*%
%TA.AperFunction,ComponentPad*%
%ADD17C,1.600000*%
%TD*%
%TA.AperFunction,ComponentPad*%
%ADD18R,1.700000X1.700000*%
%TD*%
%TA.AperFunction,ComponentPad*%
%ADD19O,1.700000X1.700000*%
%TD*%
%TA.AperFunction,ViaPad*%
%ADD20C,0.800000*%
%TD*%
%TA.AperFunction,Conductor*%
%ADD21C,0.500000*%
%TD*%
%TA.AperFunction,Conductor*%
%ADD22C,0.300000*%
%TD*%
G04 APERTURE END LIST*
D10*
%TO.P,J4,1,Pin_1*%
%TO.N,+3.3V*%
X156000000Y-55500000D03*
D11*
%TO.P,J4,2,Pin_2*%
%TO.N,GND*%
X156000000Y-60500000D03*
%TO.P,J4,3,Pin_3*%
%TO.N,/SENSOR_1*%
X156000000Y-65500000D03*
%TD*%
D12*
%TO.P,D2,1,K*%
%TO.N,+5V*%
X125250686Y-79500000D03*
D13*
%TO.P,D2,2,A*%
%TO.N,Net-(D2-A)*%
X129060686Y-79500000D03*
%TD*%
D14*
%TO.P,K1,1*%
%TO.N,Net-(J1-Pin_2)*%
X113500000Y-74340000D03*
D11*
%TO.P,K1,2*%
%TO.N,Net-(D1-A)*%
X119550000Y-72390000D03*
D14*
%TO.P,K1,3*%
%TO.N,Net-(J1-Pin_3)*%
X119550000Y-60190000D03*
%TO.P,K1,4*%
%TO.N,Net-(J1-Pin_1)*%
X107500000Y-60140000D03*
D11*
%TO.P,K1,5*%
%TO.N,+5V*%
X107550000Y-72390000D03*
%TD*%
%TO.P,J1,3,Pin_3*%
%TO.N,Net-(J1-Pin_3)*%
X118500000Y-51300000D03*
%TO.P,J1,2,Pin_2*%
%TO.N,Net-(J1-Pin_2)*%
X113500000Y-51300000D03*
D10*
%TO.P,J1,1,Pin_1*%
%TO.N,Net-(J1-Pin_1)*%
X108500000Y-51300000D03*
%TD*%
D15*
%TO.P,Q2,1,E*%
%TO.N,GND*%
X133960000Y-81500000D03*
D16*
%TO.P,Q2,2,B*%
%TO.N,Net-(Q2-B)*%
X135230000Y-81500000D03*
%TO.P,Q2,3,C*%
%TO.N,Net-(D2-A)*%
X136500000Y-81500000D03*
%TD*%
D14*
%TO.P,K2,1*%
%TO.N,Net-(J2-Pin_2)*%
X130230000Y-74340000D03*
D11*
%TO.P,K2,2*%
%TO.N,Net-(D2-A)*%
X136280000Y-72390000D03*
D14*
%TO.P,K2,3*%
%TO.N,Net-(J2-Pin_3)*%
X136280000Y-60190000D03*
%TO.P,K2,4*%
%TO.N,Net-(J2-Pin_1)*%
X124230000Y-60140000D03*
D11*
%TO.P,K2,5*%
%TO.N,+5V*%
X124280000Y-72390000D03*
%TD*%
D10*
%TO.P,J5,1,Pin_1*%
%TO.N,+3.3V*%
X156000000Y-72500000D03*
D11*
%TO.P,J5,2,Pin_2*%
%TO.N,GND*%
X156000000Y-77500000D03*
%TO.P,J5,3,Pin_3*%
%TO.N,/SENSOR_2*%
X156000000Y-82500000D03*
%TD*%
D12*
%TO.P,D1,1,K*%
%TO.N,+5V*%
X108250686Y-79500000D03*
D13*
%TO.P,D1,2,A*%
%TO.N,Net-(D1-A)*%
X112060686Y-79500000D03*
%TD*%
D15*
%TO.P,Q1,1,E*%
%TO.N,GND*%
X117230000Y-81500000D03*
D16*
%TO.P,Q1,2,B*%
%TO.N,Net-(Q1-B)*%
X118500000Y-81500000D03*
%TO.P,Q1,3,C*%
%TO.N,Net-(D1-A)*%
X119770000Y-81500000D03*
%TD*%
D17*
%TO.P,R2,1*%
%TO.N,Net-(Q2-B)*%
X130810000Y-85500000D03*
D13*
%TO.P,R2,2*%
%TO.N,/RELAY_2*%
X123190000Y-85500000D03*
%TD*%
D11*
%TO.P,J2,3,Pin_3*%
%TO.N,Net-(J2-Pin_3)*%
X135230000Y-51300000D03*
%TO.P,J2,2,Pin_2*%
%TO.N,Net-(J2-Pin_2)*%
X130230000Y-51300000D03*
D10*
%TO.P,J2,1,Pin_1*%
%TO.N,Net-(J2-Pin_1)*%
X125230000Y-51300000D03*
%TD*%
D17*
%TO.P,R1,1*%
%TO.N,Net-(Q1-B)*%
X113810000Y-85500000D03*
D13*
%TO.P,R1,2*%
%TO.N,/RELAY_1*%
X106190000Y-85500000D03*
%TD*%
D18*
%TO.P,J3,1,3V3*%
%TO.N,+3.3V*%
X154100000Y-95710000D03*
D19*
%TO.P,J3,2,5V*%
%TO.N,+5V*%
X154100000Y-98250000D03*
%TO.P,J3,3,SDA/GPIO2*%
%TO.N,unconnected-(J3-SDA{slash}GPIO2-Pad3)*%
X151560000Y-95710000D03*
%TO.P,J3,4,5V*%
%TO.N,+5V*%
X151560000Y-98250000D03*
%TO.P,J3,5,SCL/GPIO3*%
%TO.N,unconnected-(J3-SCL{slash}GPIO3-Pad5)*%
X149020000Y-95710000D03*
%TO.P,J3,6,GND*%
%TO.N,GND*%
X149020000Y-98250000D03*
%TO.P,J3,7,GCLK0/GPIO4*%
%TO.N,unconnected-(J3-GCLK0{slash}GPIO4-Pad7)*%
X146480000Y-95710000D03*
%TO.P,J3,8,GPIO14/TXD*%
%TO.N,unconnected-(J3-GPIO14{slash}TXD-Pad8)*%
X146480000Y-98250000D03*
%TO.P,J3,9,GND*%
%TO.N,GND*%
X143940000Y-95710000D03*
%TO.P,J3,10,GPIO15/RXD*%
%TO.N,unconnected-(J3-GPIO15{slash}RXD-Pad10)*%
X143940000Y-98250000D03*
%TO.P,J3,11,GPIO17*%
%TO.N,/SENSOR_2*%
X141400000Y-95710000D03*
%TO.P,J3,12,GPIO18/PWM0*%
%TO.N,unconnected-(J3-GPIO18{slash}PWM0-Pad12)*%
X141400000Y-98250000D03*
%TO.P,J3,13,GPIO27*%
%TO.N,/SENSOR_1*%
X138860000Y-95710000D03*
%TO.P,J3,14,GND*%
%TO.N,GND*%
X138860000Y-98250000D03*
%TO.P,J3,15,GPIO22*%
%TO.N,/RELAY_1*%
X136320000Y-95710000D03*
%TO.P,J3,16,GPIO23*%
%TO.N,/RELAY_2*%
X136320000Y-98250000D03*
%TO.P,J3,17,3V3*%
%TO.N,+3.3V*%
X133780000Y-95710000D03*
%TO.P,J3,18,GPIO24*%
%TO.N,unconnected-(J3-GPIO24-Pad18)*%
X133780000Y-98250000D03*
%TO.P,J3,19,MOSI0/GPIO10*%
%TO.N,unconnected-(J3-MOSI0{slash}GPIO10-Pad19)*%
X131240000Y-95710000D03*
%TO.P,J3,20,GND*%
%TO.N,GND*%
X131240000Y-98250000D03*
%TO.P,J3,21,MISO0/GPIO9*%
%TO.N,unconnected-(J3-MISO0{slash}GPIO9-Pad21)*%
X128700000Y-95710000D03*
%TO.P,J3,22,GPIO25*%
%TO.N,unconnected-(J3-GPIO25-Pad22)*%
X128700000Y-98250000D03*
%TO.P,J3,23,SCLK0/GPIO11*%
%TO.N,unconnected-(J3-SCLK0{slash}GPIO11-Pad23)*%
X126160000Y-95710000D03*
%TO.P,J3,24,~{CE0}/GPIO8*%
%TO.N,unconnected-(J3-~{CE0}{slash}GPIO8-Pad24)*%
X126160000Y-98250000D03*
%TO.P,J3,25,GND*%
%TO.N,GND*%
X123620000Y-95710000D03*
%TO.P,J3,26,~{CE1}/GPIO7*%
%TO.N,unconnected-(J3-~{CE1}{slash}GPIO7-Pad26)*%
X123620000Y-98250000D03*
%TO.P,J3,27,ID_SD/GPIO0*%
%TO.N,unconnected-(J3-ID_SD{slash}GPIO0-Pad27)*%
X121080000Y-95710000D03*
%TO.P,J3,28,ID_SC/GPIO1*%
%TO.N,unconnected-(J3-ID_SC{slash}GPIO1-Pad28)*%
X121080000Y-98250000D03*
%TO.P,J3,29,GCLK1/GPIO5*%
%TO.N,unconnected-(J3-GCLK1{slash}GPIO5-Pad29)*%
X118540000Y-95710000D03*
%TO.P,J3,30,GND*%
%TO.N,GND*%
X118540000Y-98250000D03*
%TO.P,J3,31,GCLK2/GPIO6*%
%TO.N,unconnected-(J3-GCLK2{slash}GPIO6-Pad31)*%
X116000000Y-95710000D03*
%TO.P,J3,32,PWM0/GPIO12*%
%TO.N,unconnected-(J3-PWM0{slash}GPIO12-Pad32)*%
X116000000Y-98250000D03*
%TO.P,J3,33,PWM1/GPIO13*%
%TO.N,unconnected-(J3-PWM1{slash}GPIO13-Pad33)*%
X113460000Y-95710000D03*
%TO.P,J3,34,GND*%
%TO.N,GND*%
X113460000Y-98250000D03*
%TO.P,J3,35,GPIO19/MISO1*%
%TO.N,unconnected-(J3-GPIO19{slash}MISO1-Pad35)*%
X110920000Y-95710000D03*
%TO.P,J3,36,GPIO16*%
%TO.N,unconnected-(J3-GPIO16-Pad36)*%
X110920000Y-98250000D03*
%TO.P,J3,37,GPIO26*%
%TO.N,unconnected-(J3-GPIO26-Pad37)*%
X108380000Y-95710000D03*
%TO.P,J3,38,GPIO20/MOSI1*%
%TO.N,unconnected-(J3-GPIO20{slash}MOSI1-Pad38)*%
X108380000Y-98250000D03*
%TO.P,J3,39,GND*%
%TO.N,GND*%
X105840000Y-95710000D03*
%TO.P,J3,40,GPIO21/SCLK1*%
%TO.N,unconnected-(J3-GPIO21{slash}SCLK1-Pad40)*%
X105840000Y-98250000D03*
%TD*%
D20*
%TO.N,GND*%
X106000000Y-94000000D03*
X114500000Y-94000000D03*
X120000000Y-94000000D03*
X123500000Y-94000000D03*
X130000000Y-94000000D03*
X140000000Y-94000000D03*
X148000000Y-94000000D03*
X144000000Y-94000000D03*
%TO.N,+3.3V*%
X153500000Y-94000000D03*
X144000000Y-92500000D03*
%TD*%
D21*
%TO.N,+5V*%
X152800000Y-99550000D02*
X151500000Y-99550000D01*
X151500000Y-99550000D02*
X105301522Y-99550000D01*
X151560000Y-98250000D02*
X151560000Y-99490000D01*
X151560000Y-99490000D02*
X151500000Y-99550000D01*
%TO.N,Net-(D1-A)*%
X118000000Y-73940000D02*
X119550000Y-72390000D01*
D22*
%TO.N,GND*%
X105840000Y-94160000D02*
X106000000Y-94000000D01*
X105840000Y-95710000D02*
X105840000Y-94160000D01*
X114660000Y-94160000D02*
X114500000Y-94000000D01*
X114660000Y-97050000D02*
X114660000Y-94160000D01*
X113460000Y-98250000D02*
X114660000Y-97050000D01*
X119740000Y-94260000D02*
X120000000Y-94000000D01*
X119740000Y-97050000D02*
X119740000Y-94260000D01*
X118540000Y-98250000D02*
X119740000Y-97050000D01*
X123620000Y-94120000D02*
X123500000Y-94000000D01*
X123620000Y-95710000D02*
X123620000Y-94120000D01*
X130000000Y-97010000D02*
X130000000Y-94000000D01*
X131240000Y-98250000D02*
X130000000Y-97010000D01*
X140200000Y-94200000D02*
X140000000Y-94000000D01*
X140200000Y-96910000D02*
X140200000Y-94200000D01*
X138860000Y-98250000D02*
X140200000Y-96910000D01*
X147820000Y-94180000D02*
X148000000Y-94000000D01*
X147820000Y-97050000D02*
X147820000Y-94180000D01*
X149020000Y-98250000D02*
X147820000Y-97050000D01*
X143940000Y-94060000D02*
X144000000Y-94000000D01*
X143940000Y-95710000D02*
X143940000Y-94060000D01*
D21*
%TO.N,+3.3V*%
X144000000Y-92500000D02*
X152000000Y-92500000D01*
X152000000Y-92500000D02*
X153500000Y-94000000D01*
X158500000Y-72500000D02*
X156000000Y-72500000D01*
X160000000Y-58500000D02*
X157000000Y-55500000D01*
X157000000Y-55500000D02*
X156000000Y-55500000D01*
X158500000Y-72500000D02*
X160000000Y-74000000D01*
D22*
%TO.N,/SENSOR_1*%
X138860000Y-95710000D02*
X138860000Y-92640000D01*
X138860000Y-92640000D02*
X150500000Y-81000000D01*
X150500000Y-81000000D02*
X150500000Y-71000000D01*
X150500000Y-71000000D02*
X156000000Y-65500000D01*
%TO.N,/SENSOR_2*%
X152500000Y-82500000D02*
X156000000Y-82500000D01*
D21*
%TO.N,+5V*%
X107550000Y-72390000D02*
X107550000Y-68450000D01*
X121000000Y-67000000D02*
X124280000Y-70280000D01*
X107550000Y-68450000D02*
X109000000Y-67000000D01*
X109000000Y-67000000D02*
X121000000Y-67000000D01*
X124280000Y-70280000D02*
X124280000Y-72390000D01*
X154100000Y-98250000D02*
X152800000Y-99550000D01*
X105301522Y-99550000D02*
X104500000Y-98748478D01*
X104500000Y-98748478D02*
X104500000Y-83250686D01*
X104500000Y-83250686D02*
X108250686Y-79500000D01*
%TO.N,+3.3V*%
X160000000Y-74000000D02*
X160000000Y-58500000D01*
X160000000Y-89810000D02*
X160000000Y-74000000D01*
X154100000Y-95710000D02*
X160000000Y-89810000D01*
%TO.N,Net-(D1-A)*%
X113500000Y-79500000D02*
X117250000Y-75750000D01*
X119770000Y-78270000D02*
X117250000Y-75750000D01*
X117250000Y-75750000D02*
X118000000Y-75000000D01*
X119770000Y-81500000D02*
X119770000Y-78270000D01*
%TO.N,Net-(D2-A)*%
X130500000Y-79500000D02*
X134250000Y-75750000D01*
X136500000Y-81360000D02*
X136500000Y-78000000D01*
X134250000Y-75750000D02*
X135000000Y-75000000D01*
X136500000Y-78000000D02*
X134250000Y-75750000D01*
X129060686Y-79500000D02*
X130500000Y-79500000D01*
X135000000Y-75000000D02*
X135000000Y-73670000D01*
X135000000Y-73670000D02*
X136280000Y-72390000D01*
%TO.N,+5V*%
X124280000Y-72390000D02*
X124280000Y-78529314D01*
X124280000Y-78529314D02*
X125250686Y-79500000D01*
%TO.N,Net-(D1-A)*%
X118000000Y-75000000D02*
X118000000Y-73940000D01*
X112060686Y-79500000D02*
X113500000Y-79500000D01*
%TO.N,+5V*%
X107550000Y-72390000D02*
X107550000Y-78799314D01*
X107550000Y-78799314D02*
X108250686Y-79500000D01*
D22*
%TO.N,/SENSOR_2*%
X141400000Y-95710000D02*
X141400000Y-93600000D01*
X141400000Y-93600000D02*
X152500000Y-82500000D01*
%TO.N,/RELAY_2*%
X136320000Y-98250000D02*
X137520000Y-97050000D01*
X137520000Y-97050000D02*
X137520000Y-94520000D01*
X137520000Y-94520000D02*
X134500000Y-91500000D01*
X134500000Y-91500000D02*
X127000000Y-91500000D01*
X127000000Y-91500000D02*
X123190000Y-87690000D01*
X123190000Y-87690000D02*
X123190000Y-85500000D01*
%TO.N,/RELAY_1*%
X136320000Y-95710000D02*
X133610000Y-93000000D01*
X109500000Y-93000000D02*
X106190000Y-89690000D01*
X133610000Y-93000000D02*
X109500000Y-93000000D01*
X106190000Y-89690000D02*
X106190000Y-85500000D01*
%TO.N,Net-(Q2-B)*%
X135230000Y-83770000D02*
X133500000Y-85500000D01*
X135230000Y-81360000D02*
X135230000Y-83770000D01*
X133500000Y-85500000D02*
X130810000Y-85500000D01*
%TO.N,Net-(Q1-B)*%
X113810000Y-85500000D02*
X116500000Y-85500000D01*
X116500000Y-85500000D02*
X118500000Y-83500000D01*
X118500000Y-83500000D02*
X118500000Y-81500000D01*
%TD*%
M02*
