%TF.GenerationSoftware,KiCad,Pcbnew,7.0.5-7.0.5~ubuntu22.04.1*%
%TF.CreationDate,2023-06-26T19:31:58-06:00*%
%TF.ProjectId,GaragePi_PCB,47617261-6765-4506-995f-5043422e6b69,rev?*%
%TF.SameCoordinates,Original*%
%TF.FileFunction,Soldermask,Top*%
%TF.FilePolarity,Negative*%
%FSLAX46Y46*%
G04 Gerber Fmt 4.6, Leading zero omitted, Abs format (unit mm)*
G04 Created by KiCad (PCBNEW 7.0.5-7.0.5~ubuntu22.04.1) date 2023-06-26 19:31:58*
%MOMM*%
%LPD*%
G01*
G04 APERTURE LIST*
%ADD10C,2.700000*%
%ADD11R,2.500000X2.500000*%
%ADD12C,2.500000*%
%ADD13R,1.600000X1.600000*%
%ADD14O,1.600000X1.600000*%
%ADD15C,3.000000*%
%ADD16R,1.050000X1.500000*%
%ADD17O,1.050000X1.500000*%
%ADD18C,1.600000*%
%ADD19R,1.700000X1.700000*%
%ADD20O,1.700000X1.700000*%
G04 APERTURE END LIST*
D10*
%TO.C,H1*%
X159000000Y-48000000D03*
%TD*%
D11*
%TO.C,J4*%
X156000000Y-55500000D03*
D12*
X156000000Y-60500000D03*
X156000000Y-65500000D03*
%TD*%
D10*
%TO.C,H2*%
X101000000Y-48000000D03*
%TD*%
D13*
%TO.C,D2*%
X125250686Y-79500000D03*
D14*
X129060686Y-79500000D03*
%TD*%
D15*
%TO.C,K1*%
X113500000Y-74340000D03*
D12*
X119550000Y-72390000D03*
D15*
X119550000Y-60190000D03*
X107500000Y-60140000D03*
D12*
X107550000Y-72390000D03*
%TD*%
%TO.C,J1*%
X118500000Y-51300000D03*
X113500000Y-51300000D03*
D11*
X108500000Y-51300000D03*
%TD*%
D16*
%TO.C,Q2*%
X133960000Y-81500000D03*
D17*
X135230000Y-81500000D03*
X136500000Y-81500000D03*
%TD*%
D10*
%TO.C,H4*%
X101000000Y-97000000D03*
%TD*%
D15*
%TO.C,K2*%
X130230000Y-74340000D03*
D12*
X136280000Y-72390000D03*
D15*
X136280000Y-60190000D03*
X124230000Y-60140000D03*
D12*
X124280000Y-72390000D03*
%TD*%
D11*
%TO.C,J5*%
X156000000Y-72500000D03*
D12*
X156000000Y-77500000D03*
X156000000Y-82500000D03*
%TD*%
D13*
%TO.C,D1*%
X108250686Y-79500000D03*
D14*
X112060686Y-79500000D03*
%TD*%
D16*
%TO.C,Q1*%
X117230000Y-81500000D03*
D17*
X118500000Y-81500000D03*
X119770000Y-81500000D03*
%TD*%
D18*
%TO.C,R2*%
X130810000Y-85500000D03*
D14*
X123190000Y-85500000D03*
%TD*%
D12*
%TO.C,J2*%
X135230000Y-51300000D03*
X130230000Y-51300000D03*
D11*
X125230000Y-51300000D03*
%TD*%
D10*
%TO.C,H3*%
X159000000Y-97000000D03*
%TD*%
D18*
%TO.C,R1*%
X113810000Y-85500000D03*
D14*
X106190000Y-85500000D03*
%TD*%
D19*
%TO.C,J3*%
X154100000Y-95710000D03*
D20*
X154100000Y-98250000D03*
X151560000Y-95710000D03*
X151560000Y-98250000D03*
X149020000Y-95710000D03*
X149020000Y-98250000D03*
X146480000Y-95710000D03*
X146480000Y-98250000D03*
X143940000Y-95710000D03*
X143940000Y-98250000D03*
X141400000Y-95710000D03*
X141400000Y-98250000D03*
X138860000Y-95710000D03*
X138860000Y-98250000D03*
X136320000Y-95710000D03*
X136320000Y-98250000D03*
X133780000Y-95710000D03*
X133780000Y-98250000D03*
X131240000Y-95710000D03*
X131240000Y-98250000D03*
X128700000Y-95710000D03*
X128700000Y-98250000D03*
X126160000Y-95710000D03*
X126160000Y-98250000D03*
X123620000Y-95710000D03*
X123620000Y-98250000D03*
X121080000Y-95710000D03*
X121080000Y-98250000D03*
X118540000Y-95710000D03*
X118540000Y-98250000D03*
X116000000Y-95710000D03*
X116000000Y-98250000D03*
X113460000Y-95710000D03*
X113460000Y-98250000D03*
X110920000Y-95710000D03*
X110920000Y-98250000D03*
X108380000Y-95710000D03*
X108380000Y-98250000D03*
X105840000Y-95710000D03*
X105840000Y-98250000D03*
%TD*%
M02*
