%TF.GenerationSoftware,KiCad,Pcbnew,7.0.5-7.0.5~ubuntu22.04.1*%
%TF.CreationDate,2023-06-26T19:31:58-06:00*%
%TF.ProjectId,GaragePi_PCB,47617261-6765-4506-995f-5043422e6b69,rev?*%
%TF.SameCoordinates,Original*%
%TF.FileFunction,Copper,L2,Bot*%
%TF.FilePolarity,Positive*%
%FSLAX46Y46*%
G04 Gerber Fmt 4.6, Leading zero omitted, Abs format (unit mm)*
G04 Created by KiCad (PCBNEW 7.0.5-7.0.5~ubuntu22.04.1) date 2023-06-26 19:31:58*
%MOMM*%
%LPD*%
G01*
G04 APERTURE LIST*
%TA.AperFunction,ComponentPad*%
%ADD10R,2.500000X2.500000*%
%TD*%
%TA.AperFunction,ComponentPad*%
%ADD11C,2.500000*%
%TD*%
%TA.AperFunction,ComponentPad*%
%ADD12R,1.600000X1.600000*%
%TD*%
%TA.AperFunction,ComponentPad*%
%ADD13O,1.600000X1.600000*%
%TD*%
%TA.AperFunction,ComponentPad*%
%ADD14C,3.000000*%
%TD*%
%TA.AperFunction,ComponentPad*%
%ADD15R,1.050000X1.500000*%
%TD*%
%TA.AperFunction,ComponentPad*%
%ADD16O,1.050000X1.500000*%
%TD*%
%TA.AperFunction,ComponentPad*%
%ADD17C,1.600000*%
%TD*%
%TA.AperFunction,ComponentPad*%
%ADD18R,1.700000X1.700000*%
%TD*%
%TA.AperFunction,ComponentPad*%
%ADD19O,1.700000X1.700000*%
%TD*%
%TA.AperFunction,ViaPad*%
%ADD20C,0.800000*%
%TD*%
%TA.AperFunction,Conductor*%
%ADD21C,0.500000*%
%TD*%
%TA.AperFunction,Conductor*%
%ADD22C,2.300000*%
%TD*%
G04 APERTURE END LIST*
D10*
%TO.P,J4,1,Pin_1*%
%TO.N,+3.3V*%
X156000000Y-55500000D03*
D11*
%TO.P,J4,2,Pin_2*%
%TO.N,GND*%
X156000000Y-60500000D03*
%TO.P,J4,3,Pin_3*%
%TO.N,/SENSOR_1*%
X156000000Y-65500000D03*
%TD*%
D12*
%TO.P,D2,1,K*%
%TO.N,+5V*%
X125250686Y-79500000D03*
D13*
%TO.P,D2,2,A*%
%TO.N,Net-(D2-A)*%
X129060686Y-79500000D03*
%TD*%
D14*
%TO.P,K1,1*%
%TO.N,Net-(J1-Pin_2)*%
X113500000Y-74340000D03*
D11*
%TO.P,K1,2*%
%TO.N,Net-(D1-A)*%
X119550000Y-72390000D03*
D14*
%TO.P,K1,3*%
%TO.N,Net-(J1-Pin_3)*%
X119550000Y-60190000D03*
%TO.P,K1,4*%
%TO.N,Net-(J1-Pin_1)*%
X107500000Y-60140000D03*
D11*
%TO.P,K1,5*%
%TO.N,+5V*%
X107550000Y-72390000D03*
%TD*%
%TO.P,J1,3,Pin_3*%
%TO.N,Net-(J1-Pin_3)*%
X118500000Y-51300000D03*
%TO.P,J1,2,Pin_2*%
%TO.N,Net-(J1-Pin_2)*%
X113500000Y-51300000D03*
D10*
%TO.P,J1,1,Pin_1*%
%TO.N,Net-(J1-Pin_1)*%
X108500000Y-51300000D03*
%TD*%
D15*
%TO.P,Q2,1,E*%
%TO.N,GND*%
X133960000Y-81500000D03*
D16*
%TO.P,Q2,2,B*%
%TO.N,Net-(Q2-B)*%
X135230000Y-81500000D03*
%TO.P,Q2,3,C*%
%TO.N,Net-(D2-A)*%
X136500000Y-81500000D03*
%TD*%
D14*
%TO.P,K2,1*%
%TO.N,Net-(J2-Pin_2)*%
X130230000Y-74340000D03*
D11*
%TO.P,K2,2*%
%TO.N,Net-(D2-A)*%
X136280000Y-72390000D03*
D14*
%TO.P,K2,3*%
%TO.N,Net-(J2-Pin_3)*%
X136280000Y-60190000D03*
%TO.P,K2,4*%
%TO.N,Net-(J2-Pin_1)*%
X124230000Y-60140000D03*
D11*
%TO.P,K2,5*%
%TO.N,+5V*%
X124280000Y-72390000D03*
%TD*%
D10*
%TO.P,J5,1,Pin_1*%
%TO.N,+3.3V*%
X156000000Y-72500000D03*
D11*
%TO.P,J5,2,Pin_2*%
%TO.N,GND*%
X156000000Y-77500000D03*
%TO.P,J5,3,Pin_3*%
%TO.N,/SENSOR_2*%
X156000000Y-82500000D03*
%TD*%
D12*
%TO.P,D1,1,K*%
%TO.N,+5V*%
X108250686Y-79500000D03*
D13*
%TO.P,D1,2,A*%
%TO.N,Net-(D1-A)*%
X112060686Y-79500000D03*
%TD*%
D15*
%TO.P,Q1,1,E*%
%TO.N,GND*%
X117230000Y-81500000D03*
D16*
%TO.P,Q1,2,B*%
%TO.N,Net-(Q1-B)*%
X118500000Y-81500000D03*
%TO.P,Q1,3,C*%
%TO.N,Net-(D1-A)*%
X119770000Y-81500000D03*
%TD*%
D17*
%TO.P,R2,1*%
%TO.N,Net-(Q2-B)*%
X130810000Y-85500000D03*
D13*
%TO.P,R2,2*%
%TO.N,/RELAY_2*%
X123190000Y-85500000D03*
%TD*%
D11*
%TO.P,J2,3,Pin_3*%
%TO.N,Net-(J2-Pin_3)*%
X135230000Y-51300000D03*
%TO.P,J2,2,Pin_2*%
%TO.N,Net-(J2-Pin_2)*%
X130230000Y-51300000D03*
D10*
%TO.P,J2,1,Pin_1*%
%TO.N,Net-(J2-Pin_1)*%
X125230000Y-51300000D03*
%TD*%
D17*
%TO.P,R1,1*%
%TO.N,Net-(Q1-B)*%
X113810000Y-85500000D03*
D13*
%TO.P,R1,2*%
%TO.N,/RELAY_1*%
X106190000Y-85500000D03*
%TD*%
D18*
%TO.P,J3,1,3V3*%
%TO.N,+3.3V*%
X154100000Y-95710000D03*
D19*
%TO.P,J3,2,5V*%
%TO.N,+5V*%
X154100000Y-98250000D03*
%TO.P,J3,3,SDA/GPIO2*%
%TO.N,unconnected-(J3-SDA{slash}GPIO2-Pad3)*%
X151560000Y-95710000D03*
%TO.P,J3,4,5V*%
%TO.N,+5V*%
X151560000Y-98250000D03*
%TO.P,J3,5,SCL/GPIO3*%
%TO.N,unconnected-(J3-SCL{slash}GPIO3-Pad5)*%
X149020000Y-95710000D03*
%TO.P,J3,6,GND*%
%TO.N,GND*%
X149020000Y-98250000D03*
%TO.P,J3,7,GCLK0/GPIO4*%
%TO.N,unconnected-(J3-GCLK0{slash}GPIO4-Pad7)*%
X146480000Y-95710000D03*
%TO.P,J3,8,GPIO14/TXD*%
%TO.N,unconnected-(J3-GPIO14{slash}TXD-Pad8)*%
X146480000Y-98250000D03*
%TO.P,J3,9,GND*%
%TO.N,GND*%
X143940000Y-95710000D03*
%TO.P,J3,10,GPIO15/RXD*%
%TO.N,unconnected-(J3-GPIO15{slash}RXD-Pad10)*%
X143940000Y-98250000D03*
%TO.P,J3,11,GPIO17*%
%TO.N,/SENSOR_2*%
X141400000Y-95710000D03*
%TO.P,J3,12,GPIO18/PWM0*%
%TO.N,unconnected-(J3-GPIO18{slash}PWM0-Pad12)*%
X141400000Y-98250000D03*
%TO.P,J3,13,GPIO27*%
%TO.N,/SENSOR_1*%
X138860000Y-95710000D03*
%TO.P,J3,14,GND*%
%TO.N,GND*%
X138860000Y-98250000D03*
%TO.P,J3,15,GPIO22*%
%TO.N,/RELAY_1*%
X136320000Y-95710000D03*
%TO.P,J3,16,GPIO23*%
%TO.N,/RELAY_2*%
X136320000Y-98250000D03*
%TO.P,J3,17,3V3*%
%TO.N,+3.3V*%
X133780000Y-95710000D03*
%TO.P,J3,18,GPIO24*%
%TO.N,unconnected-(J3-GPIO24-Pad18)*%
X133780000Y-98250000D03*
%TO.P,J3,19,MOSI0/GPIO10*%
%TO.N,unconnected-(J3-MOSI0{slash}GPIO10-Pad19)*%
X131240000Y-95710000D03*
%TO.P,J3,20,GND*%
%TO.N,GND*%
X131240000Y-98250000D03*
%TO.P,J3,21,MISO0/GPIO9*%
%TO.N,unconnected-(J3-MISO0{slash}GPIO9-Pad21)*%
X128700000Y-95710000D03*
%TO.P,J3,22,GPIO25*%
%TO.N,unconnected-(J3-GPIO25-Pad22)*%
X128700000Y-98250000D03*
%TO.P,J3,23,SCLK0/GPIO11*%
%TO.N,unconnected-(J3-SCLK0{slash}GPIO11-Pad23)*%
X126160000Y-95710000D03*
%TO.P,J3,24,~{CE0}/GPIO8*%
%TO.N,unconnected-(J3-~{CE0}{slash}GPIO8-Pad24)*%
X126160000Y-98250000D03*
%TO.P,J3,25,GND*%
%TO.N,GND*%
X123620000Y-95710000D03*
%TO.P,J3,26,~{CE1}/GPIO7*%
%TO.N,unconnected-(J3-~{CE1}{slash}GPIO7-Pad26)*%
X123620000Y-98250000D03*
%TO.P,J3,27,ID_SD/GPIO0*%
%TO.N,unconnected-(J3-ID_SD{slash}GPIO0-Pad27)*%
X121080000Y-95710000D03*
%TO.P,J3,28,ID_SC/GPIO1*%
%TO.N,unconnected-(J3-ID_SC{slash}GPIO1-Pad28)*%
X121080000Y-98250000D03*
%TO.P,J3,29,GCLK1/GPIO5*%
%TO.N,unconnected-(J3-GCLK1{slash}GPIO5-Pad29)*%
X118540000Y-95710000D03*
%TO.P,J3,30,GND*%
%TO.N,GND*%
X118540000Y-98250000D03*
%TO.P,J3,31,GCLK2/GPIO6*%
%TO.N,unconnected-(J3-GCLK2{slash}GPIO6-Pad31)*%
X116000000Y-95710000D03*
%TO.P,J3,32,PWM0/GPIO12*%
%TO.N,unconnected-(J3-PWM0{slash}GPIO12-Pad32)*%
X116000000Y-98250000D03*
%TO.P,J3,33,PWM1/GPIO13*%
%TO.N,unconnected-(J3-PWM1{slash}GPIO13-Pad33)*%
X113460000Y-95710000D03*
%TO.P,J3,34,GND*%
%TO.N,GND*%
X113460000Y-98250000D03*
%TO.P,J3,35,GPIO19/MISO1*%
%TO.N,unconnected-(J3-GPIO19{slash}MISO1-Pad35)*%
X110920000Y-95710000D03*
%TO.P,J3,36,GPIO16*%
%TO.N,unconnected-(J3-GPIO16-Pad36)*%
X110920000Y-98250000D03*
%TO.P,J3,37,GPIO26*%
%TO.N,unconnected-(J3-GPIO26-Pad37)*%
X108380000Y-95710000D03*
%TO.P,J3,38,GPIO20/MOSI1*%
%TO.N,unconnected-(J3-GPIO20{slash}MOSI1-Pad38)*%
X108380000Y-98250000D03*
%TO.P,J3,39,GND*%
%TO.N,GND*%
X105840000Y-95710000D03*
%TO.P,J3,40,GPIO21/SCLK1*%
%TO.N,unconnected-(J3-GPIO21{slash}SCLK1-Pad40)*%
X105840000Y-98250000D03*
%TD*%
D20*
%TO.N,GND*%
X106000000Y-94000000D03*
X114500000Y-94000000D03*
X120000000Y-94000000D03*
X123500000Y-94000000D03*
X130000000Y-94000000D03*
X140000000Y-94000000D03*
X148000000Y-94000000D03*
X144000000Y-94000000D03*
%TO.N,+3.3V*%
X153500000Y-94000000D03*
X144000000Y-92500000D03*
%TD*%
D21*
%TO.N,+3.3V*%
X135500000Y-92500000D02*
X144000000Y-92500000D01*
X154100000Y-94600000D02*
X154100000Y-95710000D01*
X153500000Y-94000000D02*
X154100000Y-94600000D01*
X133780000Y-95710000D02*
X133780000Y-94220000D01*
X133780000Y-94220000D02*
X135500000Y-92500000D01*
D22*
%TO.N,Net-(J2-Pin_2)*%
X130230000Y-51300000D02*
X130230000Y-74340000D01*
%TO.N,Net-(J2-Pin_3)*%
X136280000Y-60190000D02*
X136280000Y-52350000D01*
X136280000Y-52350000D02*
X135230000Y-51300000D01*
%TO.N,Net-(J2-Pin_1)*%
X124230000Y-60140000D02*
X124230000Y-52300000D01*
X124230000Y-52300000D02*
X125230000Y-51300000D01*
%TO.N,Net-(J1-Pin_3)*%
X119550000Y-60190000D02*
X119550000Y-52350000D01*
X119550000Y-52350000D02*
X118500000Y-51300000D01*
%TO.N,Net-(J1-Pin_1)*%
X107500000Y-60140000D02*
X107500000Y-52300000D01*
X107500000Y-52300000D02*
X108500000Y-51300000D01*
%TO.N,Net-(J1-Pin_2)*%
X113500000Y-74340000D02*
X113500000Y-51300000D01*
%TD*%
%TA.AperFunction,Conductor*%
%TO.N,GND*%
G36*
X162442539Y-51519685D02*
G01*
X162488294Y-51572489D01*
X162499500Y-51624000D01*
X162499500Y-94376000D01*
X162479815Y-94443039D01*
X162427011Y-94488794D01*
X162375500Y-94500000D01*
X154684244Y-94500000D01*
X154617205Y-94480315D01*
X154571452Y-94427516D01*
X154570525Y-94425487D01*
X154563603Y-94410331D01*
X154561936Y-94406305D01*
X154543796Y-94357669D01*
X154540905Y-94353807D01*
X154527379Y-94331010D01*
X154525377Y-94326627D01*
X154506224Y-94304523D01*
X154491411Y-94287427D01*
X154488633Y-94283979D01*
X154479229Y-94271417D01*
X154479224Y-94271412D01*
X154479221Y-94271407D01*
X154468097Y-94260283D01*
X154465103Y-94257067D01*
X154431128Y-94217857D01*
X154431125Y-94217854D01*
X154427066Y-94215246D01*
X154406428Y-94198614D01*
X154178274Y-93970460D01*
X154144789Y-93909137D01*
X154142859Y-93897724D01*
X154142091Y-93891402D01*
X154136237Y-93843182D01*
X154134217Y-93837857D01*
X154114992Y-93787164D01*
X154080220Y-93695477D01*
X153990483Y-93565470D01*
X153872240Y-93460717D01*
X153872238Y-93460716D01*
X153872237Y-93460715D01*
X153732365Y-93387303D01*
X153578986Y-93349500D01*
X153578985Y-93349500D01*
X153421015Y-93349500D01*
X153421014Y-93349500D01*
X153267634Y-93387303D01*
X153127762Y-93460715D01*
X153009516Y-93565471D01*
X152919781Y-93695475D01*
X152919780Y-93695476D01*
X152863762Y-93843181D01*
X152844722Y-93999999D01*
X152844722Y-94000000D01*
X152863762Y-94156818D01*
X152919780Y-94304523D01*
X152920494Y-94305557D01*
X152920783Y-94306434D01*
X152923267Y-94311167D01*
X152922480Y-94311579D01*
X152942379Y-94371911D01*
X152924915Y-94439563D01*
X152873649Y-94487034D01*
X152818446Y-94500000D01*
X134507175Y-94500000D01*
X134440136Y-94480315D01*
X134394381Y-94427511D01*
X134384437Y-94358353D01*
X134413462Y-94294797D01*
X134419494Y-94288319D01*
X135670994Y-93036819D01*
X135732317Y-93003334D01*
X135758675Y-93000500D01*
X143536956Y-93000500D01*
X143603995Y-93020185D01*
X143619179Y-93031681D01*
X143627760Y-93039283D01*
X143627762Y-93039284D01*
X143627766Y-93039287D01*
X143767634Y-93112696D01*
X143921014Y-93150500D01*
X143921015Y-93150500D01*
X144078985Y-93150500D01*
X144232365Y-93112696D01*
X144232364Y-93112696D01*
X144372240Y-93039283D01*
X144490483Y-92934530D01*
X144580220Y-92804523D01*
X144636237Y-92656818D01*
X144655278Y-92500000D01*
X144636237Y-92343182D01*
X144580220Y-92195477D01*
X144490483Y-92065470D01*
X144372240Y-91960717D01*
X144372238Y-91960716D01*
X144372237Y-91960715D01*
X144232365Y-91887303D01*
X144078986Y-91849500D01*
X144078985Y-91849500D01*
X143921015Y-91849500D01*
X143921014Y-91849500D01*
X143767634Y-91887303D01*
X143627766Y-91960712D01*
X143627762Y-91960715D01*
X143627759Y-91960717D01*
X143627760Y-91960717D01*
X143619181Y-91968316D01*
X143555950Y-91998037D01*
X143536956Y-91999500D01*
X135567143Y-91999500D01*
X135540785Y-91996666D01*
X135536074Y-91995641D01*
X135536070Y-91995641D01*
X135502575Y-91998037D01*
X135484328Y-91999342D01*
X135479906Y-91999500D01*
X135464199Y-91999500D01*
X135448656Y-92001734D01*
X135444260Y-92002207D01*
X135392517Y-92005909D01*
X135392513Y-92005910D01*
X135387986Y-92007598D01*
X135362327Y-92014146D01*
X135357550Y-92014833D01*
X135357543Y-92014835D01*
X135310353Y-92036385D01*
X135306264Y-92038078D01*
X135257675Y-92056200D01*
X135257668Y-92056204D01*
X135253800Y-92059100D01*
X135231019Y-92072617D01*
X135226628Y-92074622D01*
X135187428Y-92108587D01*
X135183988Y-92111360D01*
X135171408Y-92120778D01*
X135160298Y-92131886D01*
X135157064Y-92134897D01*
X135117858Y-92168870D01*
X135117856Y-92168873D01*
X135115245Y-92172936D01*
X135098615Y-92193570D01*
X133473568Y-93818616D01*
X133452938Y-93835243D01*
X133448876Y-93837854D01*
X133448867Y-93837861D01*
X133414905Y-93877055D01*
X133411892Y-93880291D01*
X133400781Y-93891402D01*
X133391354Y-93903996D01*
X133388587Y-93907428D01*
X133375375Y-93922676D01*
X133354623Y-93946626D01*
X133354617Y-93946636D01*
X133352615Y-93951020D01*
X133339100Y-93973799D01*
X133336206Y-93977664D01*
X133336200Y-93977675D01*
X133318078Y-94026264D01*
X133316385Y-94030353D01*
X133294835Y-94077543D01*
X133294833Y-94077550D01*
X133294146Y-94082327D01*
X133287598Y-94107986D01*
X133285910Y-94112513D01*
X133285909Y-94112517D01*
X133282207Y-94164260D01*
X133281734Y-94168656D01*
X133279500Y-94184199D01*
X133279500Y-94199904D01*
X133279342Y-94204329D01*
X133275640Y-94256070D01*
X133275641Y-94256073D01*
X133276666Y-94260788D01*
X133279499Y-94287139D01*
X133279499Y-94376000D01*
X133259814Y-94443039D01*
X133207010Y-94488794D01*
X133155499Y-94500000D01*
X97624500Y-94500000D01*
X97557461Y-94480315D01*
X97511706Y-94427511D01*
X97500500Y-94376000D01*
X97500500Y-85499999D01*
X105134417Y-85499999D01*
X105154699Y-85705932D01*
X105154700Y-85705934D01*
X105214768Y-85903954D01*
X105312315Y-86086450D01*
X105312317Y-86086452D01*
X105443589Y-86246410D01*
X105540209Y-86325702D01*
X105603550Y-86377685D01*
X105786046Y-86475232D01*
X105984066Y-86535300D01*
X105984065Y-86535300D01*
X106002529Y-86537118D01*
X106190000Y-86555583D01*
X106395934Y-86535300D01*
X106593954Y-86475232D01*
X106776450Y-86377685D01*
X106936410Y-86246410D01*
X107067685Y-86086450D01*
X107165232Y-85903954D01*
X107225300Y-85705934D01*
X107245583Y-85500000D01*
X107245583Y-85499999D01*
X112754417Y-85499999D01*
X112774699Y-85705932D01*
X112774700Y-85705934D01*
X112834768Y-85903954D01*
X112932315Y-86086450D01*
X112932317Y-86086452D01*
X113063589Y-86246410D01*
X113160209Y-86325702D01*
X113223550Y-86377685D01*
X113406046Y-86475232D01*
X113604066Y-86535300D01*
X113604065Y-86535300D01*
X113624347Y-86537297D01*
X113810000Y-86555583D01*
X114015934Y-86535300D01*
X114213954Y-86475232D01*
X114396450Y-86377685D01*
X114556410Y-86246410D01*
X114687685Y-86086450D01*
X114785232Y-85903954D01*
X114845300Y-85705934D01*
X114865583Y-85500000D01*
X114865583Y-85499999D01*
X122134417Y-85499999D01*
X122154699Y-85705932D01*
X122154700Y-85705934D01*
X122214768Y-85903954D01*
X122312315Y-86086450D01*
X122312317Y-86086452D01*
X122443589Y-86246410D01*
X122540209Y-86325702D01*
X122603550Y-86377685D01*
X122786046Y-86475232D01*
X122984066Y-86535300D01*
X122984065Y-86535300D01*
X123002529Y-86537118D01*
X123190000Y-86555583D01*
X123395934Y-86535300D01*
X123593954Y-86475232D01*
X123776450Y-86377685D01*
X123936410Y-86246410D01*
X124067685Y-86086450D01*
X124165232Y-85903954D01*
X124225300Y-85705934D01*
X124245583Y-85500000D01*
X129754417Y-85500000D01*
X129774699Y-85705932D01*
X129774700Y-85705934D01*
X129834768Y-85903954D01*
X129932315Y-86086450D01*
X129932317Y-86086452D01*
X130063589Y-86246410D01*
X130160209Y-86325702D01*
X130223550Y-86377685D01*
X130406046Y-86475232D01*
X130604066Y-86535300D01*
X130604065Y-86535300D01*
X130622529Y-86537118D01*
X130810000Y-86555583D01*
X131015934Y-86535300D01*
X131213954Y-86475232D01*
X131396450Y-86377685D01*
X131556410Y-86246410D01*
X131687685Y-86086450D01*
X131785232Y-85903954D01*
X131845300Y-85705934D01*
X131865583Y-85500000D01*
X131845300Y-85294066D01*
X131785232Y-85096046D01*
X131687685Y-84913550D01*
X131635702Y-84850209D01*
X131556410Y-84753589D01*
X131396452Y-84622317D01*
X131396453Y-84622317D01*
X131396450Y-84622315D01*
X131213954Y-84524768D01*
X131015934Y-84464700D01*
X131015932Y-84464699D01*
X131015934Y-84464699D01*
X130810000Y-84444417D01*
X130604067Y-84464699D01*
X130406043Y-84524769D01*
X130295898Y-84583643D01*
X130223550Y-84622315D01*
X130223548Y-84622316D01*
X130223547Y-84622317D01*
X130063589Y-84753589D01*
X129932317Y-84913547D01*
X129834769Y-85096043D01*
X129774699Y-85294067D01*
X129754417Y-85500000D01*
X124245583Y-85500000D01*
X124225300Y-85294066D01*
X124165232Y-85096046D01*
X124067685Y-84913550D01*
X124015702Y-84850209D01*
X123936410Y-84753589D01*
X123776452Y-84622317D01*
X123776453Y-84622317D01*
X123776450Y-84622315D01*
X123593954Y-84524768D01*
X123395934Y-84464700D01*
X123395932Y-84464699D01*
X123395934Y-84464699D01*
X123208463Y-84446235D01*
X123190000Y-84444417D01*
X123189999Y-84444417D01*
X122984067Y-84464699D01*
X122786043Y-84524769D01*
X122675898Y-84583643D01*
X122603550Y-84622315D01*
X122603548Y-84622316D01*
X122603547Y-84622317D01*
X122443589Y-84753589D01*
X122312317Y-84913547D01*
X122214769Y-85096043D01*
X122154699Y-85294067D01*
X122134417Y-85499999D01*
X114865583Y-85499999D01*
X114845300Y-85294066D01*
X114785232Y-85096046D01*
X114687685Y-84913550D01*
X114635702Y-84850209D01*
X114556410Y-84753589D01*
X114396452Y-84622317D01*
X114396453Y-84622317D01*
X114396450Y-84622315D01*
X114213954Y-84524768D01*
X114015934Y-84464700D01*
X114015932Y-84464699D01*
X114015934Y-84464699D01*
X113828463Y-84446235D01*
X113810000Y-84444417D01*
X113809999Y-84444417D01*
X113604067Y-84464699D01*
X113406043Y-84524769D01*
X113295898Y-84583643D01*
X113223550Y-84622315D01*
X113223548Y-84622316D01*
X113223547Y-84622317D01*
X113063589Y-84753589D01*
X112932317Y-84913547D01*
X112834769Y-85096043D01*
X112774699Y-85294067D01*
X112754417Y-85499999D01*
X107245583Y-85499999D01*
X107225300Y-85294066D01*
X107165232Y-85096046D01*
X107067685Y-84913550D01*
X107015702Y-84850209D01*
X106936410Y-84753589D01*
X106776452Y-84622317D01*
X106776453Y-84622317D01*
X106776450Y-84622315D01*
X106593954Y-84524768D01*
X106395934Y-84464700D01*
X106395932Y-84464699D01*
X106395934Y-84464699D01*
X106208463Y-84446235D01*
X106190000Y-84444417D01*
X106189999Y-84444417D01*
X105984067Y-84464699D01*
X105786043Y-84524769D01*
X105675898Y-84583643D01*
X105603550Y-84622315D01*
X105603548Y-84622316D01*
X105603547Y-84622317D01*
X105443589Y-84753589D01*
X105312317Y-84913547D01*
X105214769Y-85096043D01*
X105154699Y-85294067D01*
X105134417Y-85499999D01*
X97500500Y-85499999D01*
X97500500Y-82297844D01*
X116205000Y-82297844D01*
X116211401Y-82357372D01*
X116211403Y-82357379D01*
X116261645Y-82492086D01*
X116261649Y-82492093D01*
X116347809Y-82607187D01*
X116347812Y-82607190D01*
X116462906Y-82693350D01*
X116462913Y-82693354D01*
X116597620Y-82743596D01*
X116597627Y-82743598D01*
X116657155Y-82749999D01*
X116657172Y-82750000D01*
X116980000Y-82750000D01*
X116980000Y-81780617D01*
X117049052Y-81834363D01*
X117167424Y-81875000D01*
X117261073Y-81875000D01*
X117353446Y-81859586D01*
X117463514Y-81800019D01*
X117480000Y-81782110D01*
X117480000Y-82750000D01*
X117802828Y-82750000D01*
X117802844Y-82749999D01*
X117862372Y-82743598D01*
X117862379Y-82743596D01*
X117997086Y-82693354D01*
X117997093Y-82693350D01*
X118112186Y-82607191D01*
X118174172Y-82524389D01*
X118230106Y-82482518D01*
X118299797Y-82477534D01*
X118314375Y-82481653D01*
X118326343Y-82485841D01*
X118326349Y-82485841D01*
X118326350Y-82485842D01*
X118499996Y-82505407D01*
X118500000Y-82505407D01*
X118500004Y-82505407D01*
X118673648Y-82485842D01*
X118673647Y-82485842D01*
X118673657Y-82485841D01*
X118838606Y-82428122D01*
X118986576Y-82335147D01*
X119047319Y-82274403D01*
X119108642Y-82240919D01*
X119178334Y-82245903D01*
X119222681Y-82274404D01*
X119283424Y-82335147D01*
X119431394Y-82428122D01*
X119596343Y-82485841D01*
X119596349Y-82485841D01*
X119596351Y-82485842D01*
X119769996Y-82505407D01*
X119770000Y-82505407D01*
X119770004Y-82505407D01*
X119943648Y-82485842D01*
X119943647Y-82485842D01*
X119943657Y-82485841D01*
X120108606Y-82428122D01*
X120256576Y-82335147D01*
X120380147Y-82211576D01*
X120473122Y-82063606D01*
X120530841Y-81898657D01*
X120545500Y-81768552D01*
X120545500Y-81249999D01*
X132934999Y-81249999D01*
X132935000Y-81250000D01*
X133680440Y-81250000D01*
X133641722Y-81292059D01*
X133591449Y-81406670D01*
X133581114Y-81531395D01*
X133611837Y-81652719D01*
X133675394Y-81750000D01*
X132935000Y-81750000D01*
X132935000Y-82297844D01*
X132941401Y-82357372D01*
X132941403Y-82357379D01*
X132991645Y-82492086D01*
X132991649Y-82492093D01*
X133077809Y-82607187D01*
X133077812Y-82607190D01*
X133192906Y-82693350D01*
X133192913Y-82693354D01*
X133327620Y-82743596D01*
X133327627Y-82743598D01*
X133387155Y-82749999D01*
X133387172Y-82750000D01*
X133709999Y-82750000D01*
X133709999Y-81780617D01*
X133779052Y-81834363D01*
X133897424Y-81875000D01*
X133991073Y-81875000D01*
X134083446Y-81859586D01*
X134193514Y-81800019D01*
X134210000Y-81782110D01*
X134210000Y-82750000D01*
X134532828Y-82750000D01*
X134532844Y-82749999D01*
X134592372Y-82743598D01*
X134592379Y-82743596D01*
X134727086Y-82693354D01*
X134727093Y-82693350D01*
X134842186Y-82607191D01*
X134904172Y-82524389D01*
X134960106Y-82482518D01*
X135029797Y-82477534D01*
X135044375Y-82481653D01*
X135056343Y-82485841D01*
X135056349Y-82485841D01*
X135056350Y-82485842D01*
X135229996Y-82505407D01*
X135230000Y-82505407D01*
X135230004Y-82505407D01*
X135403648Y-82485842D01*
X135403647Y-82485842D01*
X135403657Y-82485841D01*
X135568606Y-82428122D01*
X135716576Y-82335147D01*
X135777319Y-82274403D01*
X135838642Y-82240919D01*
X135908334Y-82245903D01*
X135952681Y-82274404D01*
X136013424Y-82335147D01*
X136161394Y-82428122D01*
X136326343Y-82485841D01*
X136326349Y-82485841D01*
X136326351Y-82485842D01*
X136499996Y-82505407D01*
X136500000Y-82505407D01*
X136500004Y-82505407D01*
X136547948Y-82500005D01*
X154494357Y-82500005D01*
X154514890Y-82747812D01*
X154514892Y-82747824D01*
X154575936Y-82988881D01*
X154675826Y-83216606D01*
X154811833Y-83424782D01*
X154811836Y-83424785D01*
X154980256Y-83607738D01*
X155176491Y-83760474D01*
X155395190Y-83878828D01*
X155630386Y-83959571D01*
X155875665Y-84000500D01*
X156124335Y-84000500D01*
X156369614Y-83959571D01*
X156604810Y-83878828D01*
X156823509Y-83760474D01*
X157019744Y-83607738D01*
X157188164Y-83424785D01*
X157324173Y-83216607D01*
X157424063Y-82988881D01*
X157485108Y-82747821D01*
X157485458Y-82743596D01*
X157505643Y-82500005D01*
X157505643Y-82499994D01*
X157485109Y-82252187D01*
X157485107Y-82252175D01*
X157424063Y-82011118D01*
X157324173Y-81783393D01*
X157188166Y-81575217D01*
X157147825Y-81531395D01*
X157019744Y-81392262D01*
X156823509Y-81239526D01*
X156823507Y-81239525D01*
X156823506Y-81239524D01*
X156604811Y-81121172D01*
X156604802Y-81121169D01*
X156369616Y-81040429D01*
X156124335Y-80999500D01*
X155875665Y-80999500D01*
X155630383Y-81040429D01*
X155395197Y-81121169D01*
X155395188Y-81121172D01*
X155176493Y-81239524D01*
X154980257Y-81392261D01*
X154811833Y-81575217D01*
X154675826Y-81783393D01*
X154575936Y-82011118D01*
X154514892Y-82252175D01*
X154514890Y-82252187D01*
X154494357Y-82499994D01*
X154494357Y-82500005D01*
X136547948Y-82500005D01*
X136673648Y-82485842D01*
X136673647Y-82485842D01*
X136673657Y-82485841D01*
X136838606Y-82428122D01*
X136986576Y-82335147D01*
X137110147Y-82211576D01*
X137203122Y-82063606D01*
X137260841Y-81898657D01*
X137275500Y-81768552D01*
X137275500Y-81231448D01*
X137260841Y-81101343D01*
X137203122Y-80936394D01*
X137110147Y-80788424D01*
X136986576Y-80664853D01*
X136838606Y-80571878D01*
X136838605Y-80571877D01*
X136838604Y-80571877D01*
X136673658Y-80514159D01*
X136673648Y-80514157D01*
X136500004Y-80494593D01*
X136499996Y-80494593D01*
X136326351Y-80514157D01*
X136326341Y-80514159D01*
X136161395Y-80571877D01*
X136013423Y-80664853D01*
X135952681Y-80725596D01*
X135891358Y-80759081D01*
X135821666Y-80754097D01*
X135777319Y-80725596D01*
X135716576Y-80664853D01*
X135568604Y-80571877D01*
X135403658Y-80514159D01*
X135403648Y-80514157D01*
X135230004Y-80494593D01*
X135229996Y-80494593D01*
X135056348Y-80514157D01*
X135056333Y-80514161D01*
X135044390Y-80518340D01*
X134974611Y-80521901D01*
X134913984Y-80487170D01*
X134904171Y-80475609D01*
X134842186Y-80392809D01*
X134727093Y-80306649D01*
X134727086Y-80306645D01*
X134592379Y-80256403D01*
X134592372Y-80256401D01*
X134532844Y-80250000D01*
X134210000Y-80250000D01*
X134210000Y-81219382D01*
X134140948Y-81165637D01*
X134022576Y-81125000D01*
X133928927Y-81125000D01*
X133836554Y-81140414D01*
X133726486Y-81199981D01*
X133709999Y-81217890D01*
X133710000Y-80250000D01*
X133387155Y-80250000D01*
X133327627Y-80256401D01*
X133327620Y-80256403D01*
X133192913Y-80306645D01*
X133192906Y-80306649D01*
X133077812Y-80392809D01*
X133077809Y-80392812D01*
X132991649Y-80507906D01*
X132991645Y-80507913D01*
X132941403Y-80642620D01*
X132941401Y-80642627D01*
X132935000Y-80702155D01*
X132935000Y-80702172D01*
X132934999Y-81249999D01*
X120545500Y-81249999D01*
X120545500Y-81231448D01*
X120530841Y-81101343D01*
X120473122Y-80936394D01*
X120380147Y-80788424D01*
X120256576Y-80664853D01*
X120108606Y-80571878D01*
X120108605Y-80571877D01*
X120108604Y-80571877D01*
X119943658Y-80514159D01*
X119943648Y-80514157D01*
X119770004Y-80494593D01*
X119769996Y-80494593D01*
X119596351Y-80514157D01*
X119596341Y-80514159D01*
X119431395Y-80571877D01*
X119283423Y-80664853D01*
X119222681Y-80725596D01*
X119161358Y-80759081D01*
X119091666Y-80754097D01*
X119047319Y-80725596D01*
X118986576Y-80664853D01*
X118838604Y-80571877D01*
X118673658Y-80514159D01*
X118673648Y-80514157D01*
X118500004Y-80494593D01*
X118499996Y-80494593D01*
X118326348Y-80514157D01*
X118326333Y-80514161D01*
X118314390Y-80518340D01*
X118244611Y-80521901D01*
X118183984Y-80487170D01*
X118174171Y-80475609D01*
X118112186Y-80392809D01*
X118021176Y-80324678D01*
X124200186Y-80324678D01*
X124214718Y-80397735D01*
X124214719Y-80397739D01*
X124214720Y-80397740D01*
X124270085Y-80480601D01*
X124331896Y-80521901D01*
X124352946Y-80535966D01*
X124352950Y-80535967D01*
X124426007Y-80550499D01*
X124426010Y-80550500D01*
X124426012Y-80550500D01*
X126075362Y-80550500D01*
X126075363Y-80550499D01*
X126148426Y-80535966D01*
X126231287Y-80480601D01*
X126286652Y-80397740D01*
X126301186Y-80324674D01*
X126301186Y-79500000D01*
X128005103Y-79500000D01*
X128025385Y-79705932D01*
X128025386Y-79705934D01*
X128085454Y-79903954D01*
X128183001Y-80086450D01*
X128183003Y-80086452D01*
X128314275Y-80246410D01*
X128387673Y-80306645D01*
X128474236Y-80377685D01*
X128656732Y-80475232D01*
X128854752Y-80535300D01*
X128854751Y-80535300D01*
X128873215Y-80537118D01*
X129060686Y-80555583D01*
X129266620Y-80535300D01*
X129464640Y-80475232D01*
X129647136Y-80377685D01*
X129807096Y-80246410D01*
X129938371Y-80086450D01*
X130035918Y-79903954D01*
X130095986Y-79705934D01*
X130116269Y-79500000D01*
X130095986Y-79294066D01*
X130035918Y-79096046D01*
X129938371Y-78913550D01*
X129886388Y-78850209D01*
X129807096Y-78753589D01*
X129647138Y-78622317D01*
X129647139Y-78622317D01*
X129647136Y-78622315D01*
X129464640Y-78524768D01*
X129266620Y-78464700D01*
X129266618Y-78464699D01*
X129266620Y-78464699D01*
X129060686Y-78444417D01*
X128854753Y-78464699D01*
X128656729Y-78524769D01*
X128546584Y-78583643D01*
X128474236Y-78622315D01*
X128474234Y-78622316D01*
X128474233Y-78622317D01*
X128314275Y-78753589D01*
X128183003Y-78913547D01*
X128085455Y-79096043D01*
X128025385Y-79294067D01*
X128005103Y-79500000D01*
X126301186Y-79500000D01*
X126301186Y-78675326D01*
X126301185Y-78675325D01*
X126301186Y-78675323D01*
X126301185Y-78675321D01*
X126286653Y-78602264D01*
X126286652Y-78602260D01*
X126286651Y-78602259D01*
X126231287Y-78519399D01*
X126149423Y-78464700D01*
X126148425Y-78464033D01*
X126148421Y-78464032D01*
X126075363Y-78449500D01*
X126075360Y-78449500D01*
X124426012Y-78449500D01*
X124426009Y-78449500D01*
X124352950Y-78464032D01*
X124352946Y-78464033D01*
X124270085Y-78519399D01*
X124214719Y-78602260D01*
X124214718Y-78602264D01*
X124200186Y-78675321D01*
X124200186Y-80324678D01*
X118021176Y-80324678D01*
X117997093Y-80306649D01*
X117997086Y-80306645D01*
X117862379Y-80256403D01*
X117862372Y-80256401D01*
X117802844Y-80250000D01*
X117480000Y-80250000D01*
X117480000Y-81219382D01*
X117410948Y-81165637D01*
X117292576Y-81125000D01*
X117198927Y-81125000D01*
X117106554Y-81140414D01*
X116996486Y-81199981D01*
X116980000Y-81217889D01*
X116980000Y-80250000D01*
X116657155Y-80250000D01*
X116597627Y-80256401D01*
X116597620Y-80256403D01*
X116462913Y-80306645D01*
X116462906Y-80306649D01*
X116347812Y-80392809D01*
X116347809Y-80392812D01*
X116261649Y-80507906D01*
X116261645Y-80507913D01*
X116211403Y-80642620D01*
X116211401Y-80642627D01*
X116205000Y-80702155D01*
X116205000Y-81250000D01*
X116950440Y-81250000D01*
X116911722Y-81292059D01*
X116861449Y-81406670D01*
X116851114Y-81531395D01*
X116881837Y-81652719D01*
X116945394Y-81750000D01*
X116205000Y-81750000D01*
X116205000Y-82297844D01*
X97500500Y-82297844D01*
X97500500Y-80324678D01*
X107200186Y-80324678D01*
X107214718Y-80397735D01*
X107214719Y-80397739D01*
X107214720Y-80397740D01*
X107270085Y-80480601D01*
X107331896Y-80521901D01*
X107352946Y-80535966D01*
X107352950Y-80535967D01*
X107426007Y-80550499D01*
X107426010Y-80550500D01*
X107426012Y-80550500D01*
X109075362Y-80550500D01*
X109075363Y-80550499D01*
X109148426Y-80535966D01*
X109231287Y-80480601D01*
X109286652Y-80397740D01*
X109301186Y-80324674D01*
X109301186Y-79500000D01*
X111005103Y-79500000D01*
X111025385Y-79705932D01*
X111025386Y-79705934D01*
X111085454Y-79903954D01*
X111183001Y-80086450D01*
X111183003Y-80086452D01*
X111314275Y-80246410D01*
X111387673Y-80306645D01*
X111474236Y-80377685D01*
X111656732Y-80475232D01*
X111854752Y-80535300D01*
X111854751Y-80535300D01*
X111875034Y-80537297D01*
X112060686Y-80555583D01*
X112266620Y-80535300D01*
X112464640Y-80475232D01*
X112647136Y-80377685D01*
X112807096Y-80246410D01*
X112938371Y-80086450D01*
X113035918Y-79903954D01*
X113095986Y-79705934D01*
X113116269Y-79500000D01*
X113095986Y-79294066D01*
X113035918Y-79096046D01*
X112938371Y-78913550D01*
X112886388Y-78850209D01*
X112807096Y-78753589D01*
X112647138Y-78622317D01*
X112647139Y-78622317D01*
X112647136Y-78622315D01*
X112464640Y-78524768D01*
X112266620Y-78464700D01*
X112266618Y-78464699D01*
X112266620Y-78464699D01*
X112079149Y-78446235D01*
X112060686Y-78444417D01*
X112060685Y-78444417D01*
X111854753Y-78464699D01*
X111656729Y-78524769D01*
X111546583Y-78583643D01*
X111474236Y-78622315D01*
X111474234Y-78622316D01*
X111474233Y-78622317D01*
X111314275Y-78753589D01*
X111183003Y-78913547D01*
X111085455Y-79096043D01*
X111025385Y-79294067D01*
X111005103Y-79500000D01*
X109301186Y-79500000D01*
X109301186Y-78675326D01*
X109301186Y-78675323D01*
X109301185Y-78675321D01*
X109286653Y-78602264D01*
X109286652Y-78602260D01*
X109286652Y-78602259D01*
X109231287Y-78519399D01*
X109149423Y-78464700D01*
X109148425Y-78464033D01*
X109148421Y-78464032D01*
X109075363Y-78449500D01*
X109075360Y-78449500D01*
X107426012Y-78449500D01*
X107426009Y-78449500D01*
X107352950Y-78464032D01*
X107352946Y-78464033D01*
X107270085Y-78519399D01*
X107214719Y-78602260D01*
X107214718Y-78602264D01*
X107200186Y-78675321D01*
X107200186Y-80324678D01*
X97500500Y-80324678D01*
X97500500Y-77500004D01*
X154245093Y-77500004D01*
X154264692Y-77761545D01*
X154264693Y-77761550D01*
X154323058Y-78017270D01*
X154418883Y-78261426D01*
X154418882Y-78261426D01*
X154550030Y-78488577D01*
X154597873Y-78548571D01*
X154597874Y-78548571D01*
X155397452Y-77748993D01*
X155407188Y-77778956D01*
X155495186Y-77917619D01*
X155614903Y-78030040D01*
X155749510Y-78104041D01*
X154950831Y-78902720D01*
X155122546Y-79019793D01*
X155122550Y-79019795D01*
X155358854Y-79133594D01*
X155358858Y-79133595D01*
X155609494Y-79210907D01*
X155609500Y-79210909D01*
X155868848Y-79249999D01*
X155868857Y-79250000D01*
X156131143Y-79250000D01*
X156131151Y-79249999D01*
X156390499Y-79210909D01*
X156390505Y-79210907D01*
X156641143Y-79133595D01*
X156877445Y-79019798D01*
X156877456Y-79019791D01*
X157049167Y-78902720D01*
X156247534Y-78101086D01*
X156315629Y-78074126D01*
X156448492Y-77977595D01*
X156553175Y-77851055D01*
X156601631Y-77748078D01*
X157402124Y-78548571D01*
X157449974Y-78488570D01*
X157581116Y-78261426D01*
X157676941Y-78017270D01*
X157735306Y-77761550D01*
X157735307Y-77761545D01*
X157754907Y-77500004D01*
X157754907Y-77499995D01*
X157735307Y-77238454D01*
X157735306Y-77238449D01*
X157676941Y-76982729D01*
X157581116Y-76738573D01*
X157581117Y-76738573D01*
X157449971Y-76511426D01*
X157402125Y-76451427D01*
X156602547Y-77251005D01*
X156592812Y-77221044D01*
X156504814Y-77082381D01*
X156385097Y-76969960D01*
X156250487Y-76895957D01*
X157049167Y-76097278D01*
X156877447Y-75980202D01*
X156877445Y-75980201D01*
X156641142Y-75866404D01*
X156641144Y-75866404D01*
X156390505Y-75789092D01*
X156390499Y-75789090D01*
X156131151Y-75750000D01*
X155868848Y-75750000D01*
X155609500Y-75789090D01*
X155609494Y-75789092D01*
X155358858Y-75866404D01*
X155358854Y-75866405D01*
X155122550Y-75980204D01*
X155122546Y-75980206D01*
X154950832Y-76097278D01*
X155752465Y-76898913D01*
X155684371Y-76925874D01*
X155551508Y-77022405D01*
X155446825Y-77148945D01*
X155398367Y-77251921D01*
X154597873Y-76451427D01*
X154550029Y-76511423D01*
X154418883Y-76738573D01*
X154323058Y-76982729D01*
X154264693Y-77238449D01*
X154264692Y-77238454D01*
X154245093Y-77499995D01*
X154245093Y-77500004D01*
X97500500Y-77500004D01*
X97500500Y-77124000D01*
X97520185Y-77056961D01*
X97572989Y-77011206D01*
X97624500Y-77000000D01*
X150000000Y-77000000D01*
X150000000Y-73774678D01*
X154499500Y-73774678D01*
X154514032Y-73847735D01*
X154514033Y-73847739D01*
X154514034Y-73847740D01*
X154569399Y-73930601D01*
X154652260Y-73985966D01*
X154652264Y-73985967D01*
X154725321Y-74000499D01*
X154725324Y-74000500D01*
X154725326Y-74000500D01*
X157274676Y-74000500D01*
X157274677Y-74000499D01*
X157347740Y-73985966D01*
X157430601Y-73930601D01*
X157485966Y-73847740D01*
X157500500Y-73774674D01*
X157500500Y-71225326D01*
X157500500Y-71225325D01*
X157500500Y-71225323D01*
X157500499Y-71225321D01*
X157485967Y-71152264D01*
X157485966Y-71152260D01*
X157470776Y-71129526D01*
X157430601Y-71069399D01*
X157347740Y-71014034D01*
X157347739Y-71014033D01*
X157347735Y-71014032D01*
X157274677Y-70999500D01*
X157274674Y-70999500D01*
X154725326Y-70999500D01*
X154725323Y-70999500D01*
X154652264Y-71014032D01*
X154652260Y-71014033D01*
X154569399Y-71069399D01*
X154514033Y-71152260D01*
X154514032Y-71152264D01*
X154499500Y-71225321D01*
X154499500Y-73774678D01*
X150000000Y-73774678D01*
X150000000Y-65500005D01*
X154494357Y-65500005D01*
X154514890Y-65747812D01*
X154514892Y-65747824D01*
X154575936Y-65988881D01*
X154675826Y-66216606D01*
X154811833Y-66424782D01*
X154811836Y-66424785D01*
X154980256Y-66607738D01*
X155176491Y-66760474D01*
X155395190Y-66878828D01*
X155630386Y-66959571D01*
X155875665Y-67000500D01*
X156124335Y-67000500D01*
X156369614Y-66959571D01*
X156604810Y-66878828D01*
X156823509Y-66760474D01*
X157019744Y-66607738D01*
X157188164Y-66424785D01*
X157324173Y-66216607D01*
X157424063Y-65988881D01*
X157485108Y-65747821D01*
X157505643Y-65500000D01*
X157485108Y-65252179D01*
X157424063Y-65011119D01*
X157324173Y-64783393D01*
X157324172Y-64783392D01*
X157188166Y-64575217D01*
X157166557Y-64551744D01*
X157019744Y-64392262D01*
X156823509Y-64239526D01*
X156823507Y-64239525D01*
X156823506Y-64239524D01*
X156604811Y-64121172D01*
X156604802Y-64121169D01*
X156369616Y-64040429D01*
X156124335Y-63999500D01*
X155875665Y-63999500D01*
X155630383Y-64040429D01*
X155395197Y-64121169D01*
X155395188Y-64121172D01*
X155176493Y-64239524D01*
X154980257Y-64392261D01*
X154811833Y-64575217D01*
X154675826Y-64783393D01*
X154575936Y-65011118D01*
X154514892Y-65252175D01*
X154514890Y-65252187D01*
X154494357Y-65499994D01*
X154494357Y-65500005D01*
X150000000Y-65500005D01*
X150000000Y-60500004D01*
X154245093Y-60500004D01*
X154264692Y-60761545D01*
X154264693Y-60761550D01*
X154323058Y-61017270D01*
X154418883Y-61261426D01*
X154418882Y-61261426D01*
X154550030Y-61488577D01*
X154597873Y-61548571D01*
X154597874Y-61548571D01*
X155397452Y-60748993D01*
X155407188Y-60778956D01*
X155495186Y-60917619D01*
X155614903Y-61030040D01*
X155749510Y-61104041D01*
X154950831Y-61902720D01*
X155122546Y-62019793D01*
X155122550Y-62019795D01*
X155358854Y-62133594D01*
X155358858Y-62133595D01*
X155609494Y-62210907D01*
X155609500Y-62210909D01*
X155868848Y-62249999D01*
X155868857Y-62250000D01*
X156131143Y-62250000D01*
X156131151Y-62249999D01*
X156390499Y-62210909D01*
X156390505Y-62210907D01*
X156641143Y-62133595D01*
X156877445Y-62019798D01*
X156877456Y-62019791D01*
X157049167Y-61902720D01*
X156247534Y-61101086D01*
X156315629Y-61074126D01*
X156448492Y-60977595D01*
X156553175Y-60851055D01*
X156601631Y-60748078D01*
X157402124Y-61548571D01*
X157449974Y-61488570D01*
X157581116Y-61261426D01*
X157676941Y-61017270D01*
X157735306Y-60761550D01*
X157735307Y-60761545D01*
X157754907Y-60500004D01*
X157754907Y-60499995D01*
X157735307Y-60238454D01*
X157735306Y-60238449D01*
X157676941Y-59982729D01*
X157581116Y-59738573D01*
X157581117Y-59738573D01*
X157449971Y-59511426D01*
X157402125Y-59451427D01*
X156602546Y-60251005D01*
X156592812Y-60221044D01*
X156504814Y-60082381D01*
X156385097Y-59969960D01*
X156250487Y-59895957D01*
X157049167Y-59097278D01*
X156877447Y-58980202D01*
X156877445Y-58980201D01*
X156641142Y-58866404D01*
X156641144Y-58866404D01*
X156390505Y-58789092D01*
X156390499Y-58789090D01*
X156131151Y-58750000D01*
X155868848Y-58750000D01*
X155609500Y-58789090D01*
X155609494Y-58789092D01*
X155358858Y-58866404D01*
X155358854Y-58866405D01*
X155122550Y-58980204D01*
X155122546Y-58980206D01*
X154950832Y-59097278D01*
X155752465Y-59898913D01*
X155684371Y-59925874D01*
X155551508Y-60022405D01*
X155446825Y-60148945D01*
X155398367Y-60251921D01*
X154597873Y-59451427D01*
X154550029Y-59511423D01*
X154418883Y-59738573D01*
X154323058Y-59982729D01*
X154264693Y-60238449D01*
X154264692Y-60238454D01*
X154245093Y-60499995D01*
X154245093Y-60500004D01*
X150000000Y-60500004D01*
X150000000Y-56774678D01*
X154499500Y-56774678D01*
X154514032Y-56847735D01*
X154514033Y-56847739D01*
X154514034Y-56847740D01*
X154569399Y-56930601D01*
X154652259Y-56985965D01*
X154652260Y-56985966D01*
X154652264Y-56985967D01*
X154725321Y-57000499D01*
X154725324Y-57000500D01*
X154725326Y-57000500D01*
X157274676Y-57000500D01*
X157274677Y-57000499D01*
X157347740Y-56985966D01*
X157430601Y-56930601D01*
X157485966Y-56847740D01*
X157500500Y-56774674D01*
X157500500Y-54225326D01*
X157500500Y-54225325D01*
X157500500Y-54225323D01*
X157500499Y-54225321D01*
X157485967Y-54152264D01*
X157485966Y-54152260D01*
X157430601Y-54069399D01*
X157347740Y-54014034D01*
X157347739Y-54014033D01*
X157347735Y-54014032D01*
X157274677Y-53999500D01*
X157274674Y-53999500D01*
X154725326Y-53999500D01*
X154725323Y-53999500D01*
X154652264Y-54014032D01*
X154652260Y-54014033D01*
X154569399Y-54069399D01*
X154514033Y-54152260D01*
X154514032Y-54152264D01*
X154499500Y-54225321D01*
X154499500Y-56774678D01*
X150000000Y-56774678D01*
X150000000Y-51624000D01*
X150019685Y-51556961D01*
X150072489Y-51511206D01*
X150124000Y-51500000D01*
X162375500Y-51500000D01*
X162442539Y-51519685D01*
G37*
%TD.AperFunction*%
%TD*%
M02*
