M48
; DRILL file {KiCad 7.0.5-7.0.5~ubuntu22.04.1} date Mon 26 Jun 2023 07:31:54 PM MDT
; FORMAT={-:-/ absolute / metric / decimal}
; #@! TF.CreationDate,2023-06-26T19:31:54-06:00
; #@! TF.GenerationSoftware,Kicad,Pcbnew,7.0.5-7.0.5~ubuntu22.04.1
; #@! TF.FileFunction,MixedPlating,1,2
FMAT,2
METRIC
; #@! TA.AperFunction,Plated,PTH,ViaDrill
T1C0.400
; #@! TA.AperFunction,Plated,PTH,ComponentDrill
T2C0.750
; #@! TA.AperFunction,Plated,PTH,ComponentDrill
T3C0.800
; #@! TA.AperFunction,Plated,PTH,ComponentDrill
T4C1.000
; #@! TA.AperFunction,Plated,PTH,ComponentDrill
T5C1.300
; #@! TA.AperFunction,NonPlated,NPTH,ComponentDrill
T6C2.700
%
G90
G05
T1
X106.0Y-94.0
X114.5Y-94.0
X120.0Y-94.0
X123.5Y-94.0
X130.0Y-94.0
X140.0Y-94.0
X144.0Y-92.5
X144.0Y-94.0
X148.0Y-94.0
X153.5Y-94.0
T2
X117.23Y-81.5
X118.5Y-81.5
X119.77Y-81.5
X133.96Y-81.5
X135.23Y-81.5
X136.5Y-81.5
T3
X106.19Y-85.5
X108.251Y-79.5
X112.061Y-79.5
X113.81Y-85.5
X123.19Y-85.5
X125.251Y-79.5
X129.061Y-79.5
X130.81Y-85.5
T4
X105.84Y-95.71
X105.84Y-98.25
X107.55Y-72.39
X108.38Y-95.71
X108.38Y-98.25
X110.92Y-95.71
X110.92Y-98.25
X113.46Y-95.71
X113.46Y-98.25
X116.0Y-95.71
X116.0Y-98.25
X118.54Y-95.71
X118.54Y-98.25
X119.55Y-72.39
X121.08Y-95.71
X121.08Y-98.25
X123.62Y-95.71
X123.62Y-98.25
X124.28Y-72.39
X126.16Y-95.71
X126.16Y-98.25
X128.7Y-95.71
X128.7Y-98.25
X131.24Y-95.71
X131.24Y-98.25
X133.78Y-95.71
X133.78Y-98.25
X136.28Y-72.39
X136.32Y-95.71
X136.32Y-98.25
X138.86Y-95.71
X138.86Y-98.25
X141.4Y-95.71
X141.4Y-98.25
X143.94Y-95.71
X143.94Y-98.25
X146.48Y-95.71
X146.48Y-98.25
X149.02Y-95.71
X149.02Y-98.25
X151.56Y-95.71
X151.56Y-98.25
X154.1Y-95.71
X154.1Y-98.25
T5
X107.5Y-60.14
X108.5Y-51.3
X113.5Y-51.3
X113.5Y-74.34
X118.5Y-51.3
X119.55Y-60.19
X124.23Y-60.14
X125.23Y-51.3
X130.23Y-51.3
X130.23Y-74.34
X135.23Y-51.3
X136.28Y-60.19
X156.0Y-55.5
X156.0Y-60.5
X156.0Y-65.5
X156.0Y-72.5
X156.0Y-77.5
X156.0Y-82.5
T6
X101.0Y-48.0
X101.0Y-97.0
X159.0Y-48.0
X159.0Y-97.0
T0
M30
